<?xml version="1.0" encoding="utf-8"?>
<!-- Generator: Adobe Illustrator 16.0.4, SVG Export Plug-In . SVG Version: 6.00 Build 0)  -->
<!DOCTYPE svg PUBLIC "-//W3C//DTD SVG 1.1//EN" "http://www.w3.org/Graphics/SVG/1.1/DTD/svg11.dtd">
<svg version="1.1" id="Ebene_1" xmlns="http://www.w3.org/2000/svg" xmlns:xlink="http://www.w3.org/1999/xlink" x="0px" y="0px"
	 width="48px" height="48px" viewBox="0 0 48 48" enable-background="new 0 0 48 48" xml:space="preserve">
<path fill="none" d="M0,0h48v48H0V0z"/>
<path d="M31,13c2.2,0,4-1.8,4-4s-1.8-4-4-4s-4,1.8-4,4S28.8,13,31,13z M10,26C4.4,26,0,30.4,0,36s4.4,10,10,10s10-4.4,10-10
	S15.6,26,10,26z M10,43c-3.8,0-7-3.2-7-7s3.2-7,7-7s7,3.2,7,7S13.8,43,10,43z M21.6,23l4.8-4.8l1.6,1.6c2.6,2.6,6,4.2,10.2,4.2v-4
	c-3,0-5.4-1.2-7.2-3l-3.8-3.8c-1-0.8-2-1.2-3.2-1.2s-2.2,0.4-2.8,1.2l-5.6,5.6c-0.8,0.8-1.2,1.8-1.2,2.8c0,1.2,0.4,2.2,1.2,2.8
	L22,30v10h4V27.6L21.6,23z M38,26c-5.6,0-10,4.4-10,10s4.4,10,10,10s10-4.4,10-10S43.6,26,38,26z M38,43c-3.8,0-7-3.2-7-7s3.2-7,7-7
	s7,3.2,7,7S41.8,43,38,43z"/>
<path d="M0.304,15.193l2.753,0.031C2.989,8.381,8.482,2.894,15.324,2.969l-0.026-2.752C6.939,0.122,0.227,6.828,0.304,15.193z
	 M11.319,15.316l4.131,0.046l-0.042-4.13C13.13,11.199,11.297,13.03,11.319,15.316z M5.812,15.254l2.754,0.031
	c-0.039-3.801,3.014-6.851,6.814-6.808l-0.028-2.754C10.037,5.665,5.765,9.933,5.812,15.254z"/>
</svg>
